# xmcd
#
# Track frame offsets: 
#        150
#        12671
#        16456
#        28386
#        35010
#        41177
#        47344
#        53511
#        59608
#        83978
#        90369
#        113649
#        136647
#        148890
#        161330
#        173487
#        185427
#        201215
#        213977
#        230354
#        242320
#        254647
#        266502
#        272573
#        288061
#        303549
#        319491
#
# Disc length: 4291 seconds
#
# Revision: 0
# Processed by: cddbd v1.5.2PL0 Copyright (c) Steve Scherf et al.
# Submitted via: ExactAudioCopy v0.95b3
#
DISCID=7b10c11b
DTITLE=The Beatles  - The Sgt Pepper Recording Sessions Reconstructed 
DTITLE=Outtakes and Outfakes - D 6
DYEAR=1900
DGENRE=
TTITLE0=WITH A LITTLE HELP FROM MY FRIENDS      Mono mix
TTITLE1=Being For The Benefit Of Mr Kite
TTITLE2=BEING FOR THE BENEFIT OF MR KITE      Mono mix
TTITLE3=SGT PEPPERS LONELY HEARTS CLUB BAND (REPRISE)     Take 5
TTITLE4=SGT PEPPERS LONELY HEARTS CLUB BAND (REPRISE)     Take 9
TTITLE5=SGT PEPPERS LONELY HEARTS CLUB BAND (REPRISE)     SI onto take
TTITLE5=9
TTITLE6=SGT PEPPERS LONELY HEARTS CLUB BAND (REPRISE)     SI onto take
TTITLE6=9
TTITLE7=SGT PEPPERS LONELY HEARTS CLUB BAND (REPRISE)     Mono mix
TTITLE8=WITHIN YOU WITHOUT YOU    SI onto take 2
TTITLE9=WITHIN YOU WITHOUT YOU    SI onto take 2
TTITLE10=WITHIN YOU WITHOUT YOU    Mono mix edit of RM10 and RM12
TTITLE11=WITHIN YOU WITHOUT YOU    Stereo mix edit of RS3 and RS5
TTITLE12=GOOD MORNING GOOD MORNING   Stereo mix RS5
TTITLE13=WITH A LITTLE HELP FROM MY FRIENDS   Stereo mix RS3
TTITLE14=BEING FOR THE BENEFIT OF MR KITE   Stereo mix RS8
TTITLE15=FIXING A HOLE   Stereo mix RS1
TTITLE16=LUCY IN THE SKY WITH DIAMONDS   Stereo mix RS5
TTITLE17=GETTING BETTER    Stereo mix RS1
TTITLE18=SHES LEAVING HOME   Stereo mix RS6
TTITLE19=WHEN I_M SIXTY-FOUR    Stereo mix RS1
TTITLE20=LOVELY RITA    Stereo mix RS2
TTITLE21=GOOD MORNING GOOD MORNING    Mono mix RM23
TTITLE22=SGT PEPPERS LONELY HEARTS CLUB BAND (REPRISE)   Stereo mix RS
TTITLE22=10
TTITLE23=ONLY A NORTHERN SONG   SI onto take 3
TTITLE24=ONLY A NORTHERN SONG   SI onto take 11
TTITLE25=ONLY A NORTHERN SONG    Mono mix from takes 3 and 11
TTITLE26=Edit For Lp End
EXTD=
EXTT0=
EXTT1=
EXTT2=
EXTT3=
EXTT4=
EXTT5=
EXTT6=
EXTT7=
EXTT8=
EXTT9=
EXTT10=
EXTT11=
EXTT12=
EXTT13=
EXTT14=
EXTT15=
EXTT16=
EXTT17=
EXTT18=
EXTT19=
EXTT20=
EXTT21=
EXTT22=
EXTT23=
EXTT24=
EXTT25=
EXTT26=
PLAYORDER=
